<svg width="181" height="122" viewBox="0 0 181 122" fill="none" xmlns="http://www.w3.org/2000/svg">
<path d="M100.909 0.00316385C112.973 0.23874 117.41 14.2468 127.843 19.1998C137.456 23.7636 150.16 22.261 159.119 27.6389C168.923 33.5242 179.849 41.1737 180.939 51.0713C182.055 61.2049 167.511 68.2206 164.679 78.1286C161.806 88.1796 171.153 99.9457 164.466 108.704C157.961 117.223 143.663 119.634 131.579 121.479C120.596 123.157 109.642 120.384 98.6479 118.758C89.0001 117.331 80.4129 113.133 70.6421 112.468C54.5559 111.373 36.1584 121.051 22.8434 113.598C11.1109 107.031 16.3783 91.4218 12.9126 80.1555C9.31804 68.4701 -5.16301 56.1737 1.92888 45.6087C9.87877 33.7654 31.8878 35.3939 46.8366 29.6177C55.9125 26.1107 64.7051 22.6968 73.0441 18.1297C83.0316 12.6597 88.8871 -0.231595 100.909 0.00316385Z" fill="#FFC20D"/>
</svg>
