<svg width="181" height="95" viewBox="0 0 181 95" fill="none" xmlns="http://www.w3.org/2000/svg">
<path d="M100.909 -26.9968C112.973 -26.7613 117.41 -12.7532 127.843 -7.80024C137.456 -3.23644 150.16 -4.73904 159.119 0.638939C168.923 6.52421 179.849 14.1737 180.939 24.0713C182.055 34.2048 167.511 41.2206 164.678 51.1286C161.806 61.1796 171.153 72.9457 164.466 81.7038C157.961 90.2231 143.663 92.6336 131.579 94.4794C120.596 96.1571 109.642 93.3835 98.6479 91.7577C89.0001 90.331 80.4129 86.1332 70.6421 85.4682C54.5559 84.3733 36.1584 94.051 22.8434 86.5983C11.1109 80.0313 16.3783 64.4218 12.9126 53.1555C9.31804 41.4701 -5.16301 29.1737 1.92888 18.6087C9.87877 6.7654 31.8878 8.39391 46.8366 2.61767C55.9125 -0.889273 64.7051 -4.30321 73.0441 -8.87033C83.0316 -14.3403 88.8871 -27.2316 100.909 -26.9968Z" fill="#FFC20D"/>
</svg>
