<svg width="142" height="52" viewBox="0 0 142 52" fill="none" xmlns="http://www.w3.org/2000/svg">
<path d="M5.80469 13.7344C5.66406 13.7656 5.5625 13.8516 5.5 13.9922C5.4375 14.1172 5.375 14.25 5.3125 14.3906C5.26562 14.5312 5.21094 14.6641 5.14844 14.7891C5.10156 14.8984 5.02344 14.9531 4.91406 14.9531C4.89844 15.0781 4.85156 15.1875 4.77344 15.2812C4.71094 15.375 4.64844 15.4766 4.58594 15.5859C4.52344 15.6797 4.47656 15.7891 4.44531 15.9141C4.41406 16.0234 4.42969 16.1562 4.49219 16.3125C4.36719 16.4062 4.28906 16.5391 4.25781 16.7109C4.22656 16.8828 4.1875 17.0469 4.14062 17.2031C4.10938 17.3594 4.04688 17.4922 3.95312 17.6016C3.85938 17.7109 3.6875 17.7578 3.4375 17.7422C3.39062 17.8047 3.38281 17.8438 3.41406 17.8594C3.44531 17.875 3.46875 17.9297 3.48438 18.0234C3.3125 17.9922 3.17969 18 3.08594 18.0469C3.00781 18.1094 2.90625 18.1484 2.78125 18.1641C2.48438 18.0703 2.23438 17.9062 2.03125 17.6719C1.84375 17.4375 1.67188 17.1797 1.51562 16.8984C1.375 16.6016 1.24219 16.3047 1.11719 16.0078C1.00781 15.7109 0.898438 15.4531 0.789062 15.2344C0.835938 15.0625 0.84375 14.8984 0.8125 14.7422C0.78125 14.5703 0.726562 14.4297 0.648438 14.3203C1.41406 12.6953 2.25 10.9609 3.15625 9.11719C4.0625 7.27344 4.92188 5.45312 5.73438 3.65625C6.09375 3.79688 6.44531 3.96094 6.78906 4.14844C7.14844 4.32031 7.46875 4.52344 7.75 4.75781C8.04688 4.99219 8.29688 5.26562 8.5 5.57812C8.70312 5.875 8.83594 6.21094 8.89844 6.58594C8.86719 6.67969 8.82812 6.71875 8.78125 6.70312C8.75 6.67188 8.71875 6.67969 8.6875 6.72656C8.75 6.80469 8.78125 6.85938 8.78125 6.89062C8.79688 6.92188 8.79688 6.95312 8.78125 6.98438C8.78125 7.01562 8.78125 7.0625 8.78125 7.125C8.78125 7.17188 8.80469 7.24219 8.85156 7.33594C8.78906 7.32031 8.74219 7.32812 8.71094 7.35938C8.69531 7.39062 8.64844 7.39062 8.57031 7.35938C8.63281 7.53125 8.64844 7.67188 8.61719 7.78125C8.60156 7.89062 8.57031 7.99219 8.52344 8.08594C8.47656 8.16406 8.4375 8.25781 8.40625 8.36719C8.375 8.46094 8.38281 8.58594 8.42969 8.74219C8.38281 8.74219 8.34375 8.75781 8.3125 8.78906C8.29688 8.80469 8.28125 8.82812 8.26562 8.85938C8.25 8.875 8.22656 8.89844 8.19531 8.92969C8.17969 8.94531 8.14844 8.94531 8.10156 8.92969C8.14844 9.27344 8.16406 9.61719 8.14844 9.96094C8.13281 10.3047 8.11719 10.6562 8.10156 11.0156C8.10156 11.3594 8.10938 11.7266 8.125 12.1172C8.14062 12.4922 8.19531 12.8828 8.28906 13.2891C8.85156 12.9609 9.29688 12.5391 9.625 12.0234C9.96875 11.5078 10.2422 10.9297 10.4453 10.2891C10.6641 9.64844 10.8281 8.96094 10.9375 8.22656C11.0469 7.49219 11.1641 6.74219 11.2891 5.97656C11.4297 5.83594 11.5391 5.66406 11.6172 5.46094C11.6953 5.25781 11.7656 5.04688 11.8281 4.82812C11.8906 4.59375 11.9531 4.36719 12.0156 4.14844C12.0781 3.91406 12.1562 3.70312 12.25 3.51562C12.4844 3.54688 12.6797 3.625 12.8359 3.75C13.0078 3.85937 13.1641 3.98438 13.3047 4.125C13.4453 4.25 13.5938 4.375 13.75 4.5C13.9062 4.60937 14.1016 4.67969 14.3359 4.71094C14.5234 4.97656 14.6953 5.23438 14.8516 5.48438C15.0078 5.73437 15.1094 6 15.1562 6.28125C15.0781 6.40625 15.0156 6.54688 14.9688 6.70312C14.9375 6.85938 14.8984 7.01562 14.8516 7.17188C14.8047 7.32812 14.7422 7.47656 14.6641 7.61719C14.5859 7.74219 14.4766 7.85156 14.3359 7.94531C14.2891 8.35156 14.2266 8.72656 14.1484 9.07031C14.0859 9.39844 14.0156 9.72656 13.9375 10.0547C13.875 10.3828 13.8203 10.7266 13.7734 11.0859C13.7266 11.4297 13.7109 11.8125 13.7266 12.2344C13.6016 12.5938 13.4688 12.9766 13.3281 13.3828C13.1875 13.7891 13.0781 14.1562 13 14.4844C12.75 14.6875 12.5547 14.9297 12.4141 15.2109C12.2734 15.4922 12.125 15.7734 11.9688 16.0547C11.9062 16.1172 11.8672 16.1328 11.8516 16.1016C11.8359 16.0703 11.7812 16.0469 11.6875 16.0312C11.7031 16.0938 11.7031 16.1406 11.6875 16.1719C11.6719 16.2031 11.6484 16.2344 11.6172 16.2656C11.6016 16.2812 11.5859 16.3125 11.5703 16.3594C11.5703 16.4062 11.5859 16.4688 11.6172 16.5469C11.3984 16.6406 11.2031 16.7734 11.0312 16.9453C10.8594 17.1172 10.6719 17.2734 10.4688 17.4141C10.2812 17.5547 10.0469 17.6484 9.76562 17.6953C9.5 17.7422 9.14844 17.6875 8.71094 17.5312C8.07031 17.0625 7.5 16.5234 7 15.9141C6.51562 15.3047 6.11719 14.5781 5.80469 13.7344ZM20.1953 18.0938C19.5078 18.1875 18.8828 18.1562 18.3203 18C17.7578 17.8438 17.25 17.6016 16.7969 17.2734C16.3594 16.9453 15.9766 16.5547 15.6484 16.1016C15.3359 15.6484 15.0781 15.1641 14.875 14.6484C14.7344 13.5859 14.7734 12.625 14.9922 11.7656C15.2109 10.8906 15.5312 10.0859 15.9531 9.35156C16.375 8.61719 16.8516 7.92969 17.3828 7.28906C17.9297 6.64844 18.4531 6.03125 18.9531 5.4375C19.0625 5.48438 19.1484 5.48438 19.2109 5.4375C19.2891 5.39062 19.3516 5.32813 19.3984 5.25C19.4609 5.17187 19.5234 5.09375 19.5859 5.01562C19.6641 4.9375 19.75 4.88281 19.8438 4.85156C19.9062 4.71094 19.9844 4.59375 20.0781 4.5C20.1875 4.40625 20.2969 4.32031 20.4062 4.24219C20.5312 4.14844 20.6406 4.05469 20.7344 3.96094C20.8438 3.86719 20.9375 3.75 21.0156 3.60938C21.1719 3.57812 21.3047 3.52344 21.4141 3.44531C21.5391 3.36719 21.6484 3.28125 21.7422 3.1875C21.8516 3.09375 21.9609 3.00781 22.0703 2.92969C22.1797 2.85156 22.3125 2.78906 22.4688 2.74219V2.4375C22.8125 2.28125 23.0625 2.10938 23.2188 1.92188C23.375 1.73438 23.5625 1.49219 23.7812 1.19531C23.9531 1.17969 24.0859 1.17188 24.1797 1.17188C24.2891 1.17188 24.4531 1.15625 24.6719 1.125C24.8125 0.859375 24.9453 0.664063 25.0703 0.539062C25.1953 0.414062 25.375 0.273437 25.6094 0.117188C25.8438 0.242188 26.0938 0.320312 26.3594 0.351562C26.625 0.367187 26.8672 0.484375 27.0859 0.703125C27.1016 0.890625 27.1562 1.03906 27.25 1.14844C27.3438 1.24219 27.4453 1.33594 27.5547 1.42969C27.6641 1.50781 27.7734 1.59375 27.8828 1.6875C27.9922 1.78125 28.0625 1.91406 28.0938 2.08594C28.1719 2.08594 28.2188 2.07031 28.2344 2.03906C28.2656 2.00781 28.3203 2 28.3984 2.01562C28.4297 2.14063 28.4609 2.24219 28.4922 2.32031C28.5234 2.39844 28.5547 2.46875 28.5859 2.53125C28.6328 2.59375 28.6719 2.66406 28.7031 2.74219C28.75 2.82031 28.7891 2.91406 28.8203 3.02344C28.7422 3.21094 28.6719 3.41406 28.6094 3.63281C28.5469 3.83594 28.4219 3.97656 28.2344 4.05469C28.2344 4.17969 28.2812 4.25 28.375 4.26562C28.4688 4.26562 28.5234 4.32031 28.5391 4.42969C28.5547 4.57031 28.5312 4.6875 28.4688 4.78125C28.9062 5.51563 29.3047 6.28906 29.6641 7.10156C30.0234 7.89844 30.4297 8.66406 30.8828 9.39844C30.8516 9.61719 30.8594 9.83594 30.9062 10.0547C30.9688 10.2578 31.0391 10.4609 31.1172 10.6641C31.2109 10.8672 31.2969 11.0703 31.375 11.2734C31.4531 11.4766 31.5078 11.6797 31.5391 11.8828C31.5703 12.1484 31.5703 12.4375 31.5391 12.75C31.5078 13.0469 31.4453 13.3359 31.3516 13.6172C31.2578 13.8984 31.1328 14.1641 30.9766 14.4141C30.8203 14.6484 30.6406 14.8281 30.4375 14.9531C30.1875 15.2656 29.875 15.5234 29.5 15.7266C29.125 15.9141 28.7812 16.1406 28.4688 16.4062C28.25 16.5312 28.0156 16.625 27.7656 16.6875C27.5156 16.7344 27.2578 16.7891 26.9922 16.8516C26.7891 16.9766 26.5469 17.1016 26.2656 17.2266C25.9844 17.3359 25.6953 17.4375 25.3984 17.5312C25.1016 17.625 24.8047 17.7031 24.5078 17.7656C24.2109 17.8125 23.9453 17.8203 23.7109 17.7891C23.1484 17.9922 22.6016 18.1328 22.0703 18.2109C21.5391 18.2891 20.9141 18.25 20.1953 18.0938ZM20.5 9.5625C20.3438 9.92188 20.1562 10.25 19.9375 10.5469C19.7344 10.8281 19.5312 11.1172 19.3281 11.4141C19.125 11.7109 18.9453 12.0312 18.7891 12.375C18.6484 12.7031 18.5703 13.0938 18.5547 13.5469C18.8672 13.8125 19.2344 13.9766 19.6562 14.0391C20.0938 14.0859 20.5391 14.0938 20.9922 14.0625C21.4453 14.0156 21.8984 13.9531 22.3516 13.875C22.8047 13.7969 23.2109 13.7578 23.5703 13.7578C23.5703 13.6172 23.6328 13.5469 23.7578 13.5469C24.4141 13.4844 25.0234 13.3047 25.5859 13.0078C26.1484 12.6953 26.7344 12.3828 27.3438 12.0703C27.4219 11.8828 27.5234 11.7188 27.6484 11.5781C27.7734 11.4375 27.8438 11.2344 27.8594 10.9688C27.7812 10.8281 27.7266 10.7109 27.6953 10.6172C27.6797 10.5234 27.6719 10.3828 27.6719 10.1953C27.2656 9.63281 26.9141 9.02344 26.6172 8.36719C26.3203 7.69531 25.9766 7.0625 25.5859 6.46875C25.5547 6.54688 25.4922 6.625 25.3984 6.70312C25.3047 6.78125 25.2031 6.76562 25.0938 6.65625C25.0469 6.8125 24.9766 6.92188 24.8828 6.98438C24.7891 7.03125 24.6797 7.05469 24.5547 7.05469C24.4453 7.05469 24.3281 7.03125 24.2031 6.98438C24.0938 6.9375 23.9922 6.875 23.8984 6.79688C23.3516 7.23438 22.8047 7.65625 22.2578 8.0625C21.7266 8.46875 21.2422 8.94531 20.8047 9.49219C20.7266 9.53906 20.6797 9.55469 20.6641 9.53906C20.6484 9.52344 20.5938 9.53125 20.5 9.5625ZM41.8047 4.78125C41.7891 4.65625 41.7578 4.54688 41.7109 4.45312C41.6797 4.34375 41.6406 4.22656 41.5938 4.10156C41.5156 3.91406 41.4453 3.71094 41.3828 3.49219C41.3203 3.27344 41.2891 3.01562 41.2891 2.71875C41.3203 2.5625 41.3594 2.45312 41.4062 2.39062C41.4531 2.3125 41.5 2.25 41.5469 2.20312L41.6406 1.78125H41.9922C42.1172 1.79687 42.2422 1.80469 42.3672 1.80469C42.5078 1.80469 42.6406 1.80469 42.7656 1.80469C43.3594 1.80469 43.9688 1.78125 44.5938 1.73438C45.2188 1.6875 45.8594 1.63281 46.5156 1.57031C47.2344 1.47656 48.0078 1.40625 48.8359 1.35938C48.9141 1.1875 48.9609 1.07812 48.9766 1.03125C49.0078 0.984375 49.0391 0.929687 49.0703 0.867188L49.3281 0.726562C49.6875 0.710938 49.9375 0.757813 50.0781 0.867188C50.2188 0.960938 50.3281 1.05469 50.4062 1.14844C50.8125 1.11719 51.2266 1.07812 51.6484 1.03125C52.0703 0.96875 52.5078 0.90625 52.9609 0.84375C53.5859 0.765625 54.2188 0.6875 54.8594 0.609375C55.5 0.53125 56.125 0.492188 56.7344 0.492188C57 0.492188 57.25 0.5 57.4844 0.515625C57.7188 0.53125 57.9453 0.554687 58.1641 0.585938L58.4453 0.796875C58.5078 0.90625 58.5859 1.00781 58.6797 1.10156C58.7734 1.19531 58.8828 1.28906 59.0078 1.38281C59.2422 1.57031 59.4688 1.80469 59.6875 2.08594C59.9219 2.36719 60.0078 2.78125 59.9453 3.32812L59.8281 3.5625C59.7656 3.625 59.6875 3.6875 59.5938 3.75L59.3594 4.05469H59.1016C58.9453 4.05469 58.8281 4.07031 58.75 4.10156C58.6719 4.11719 58.5781 4.14844 58.4688 4.19531C58.4062 4.22656 58.3359 4.25781 58.2578 4.28906C58.1797 4.30469 58.0938 4.32812 58 4.35938C57.8281 4.34375 57.6953 4.33594 57.6016 4.33594C57.5078 4.33594 57.3984 4.33594 57.2734 4.33594C56.8047 4.33594 56.2969 4.36719 55.75 4.42969C55.2031 4.49219 54.6719 4.5625 54.1562 4.64062C53.7812 4.6875 53.4219 4.73438 53.0781 4.78125C52.7344 4.8125 52.4219 4.84375 52.1406 4.875C51.9844 5.28125 51.8438 5.64062 51.7188 5.95312C51.5938 6.26562 51.4609 6.57812 51.3203 6.89062C51.1797 7.20312 51.0469 7.52344 50.9219 7.85156C50.7969 8.16406 50.6797 8.51562 50.5703 8.90625C50.3828 9.1875 50.2266 9.46094 50.1016 9.72656C49.9766 9.97656 49.875 10.2656 49.7969 10.5938C49.5625 10.8594 49.3906 11.1484 49.2812 11.4609C49.1875 11.7734 49.1016 12.0391 49.0234 12.2578L48.9297 12.6094C48.8203 12.7188 48.75 12.8047 48.7188 12.8672C48.7031 12.9297 48.6641 13 48.6016 13.0781C48.5547 13.2812 48.4922 13.4766 48.4141 13.6641C48.3828 13.7422 48.3516 13.8281 48.3203 13.9219C48.2891 14 48.2812 14.0625 48.2969 14.1094C48.2656 14.2812 48.2188 14.4141 48.1562 14.5078C48.1562 14.6016 48.1484 14.6953 48.1328 14.7891C48.1172 14.8828 48.1016 14.9766 48.0859 15.0703C48.0547 15.1797 48.0312 15.2812 48.0156 15.375C48 15.4531 48.0078 15.5312 48.0391 15.6094C48.0859 15.6719 48.1328 15.7344 48.1797 15.7969C48.2266 15.8594 48.2656 15.9375 48.2969 16.0312C48.3281 16.0625 48.3672 16.0859 48.4141 16.1016C48.4609 16.1172 48.5 16.1406 48.5312 16.1719C48.6562 16.2812 48.7734 16.3438 48.8828 16.3594L49.1172 16.6406C49.2109 17.2031 49.125 17.6406 48.8594 17.9531C48.5781 18.3125 48.1094 18.4922 47.4531 18.4922L47.125 18.4688C47.0156 18.3594 46.9531 18.2891 46.9375 18.2578C46.7969 18.1953 46.6797 18.1406 46.5859 18.0938C46.4922 18.0625 46.4062 17.9922 46.3281 17.8828C46.2969 17.8516 46.2578 17.8359 46.2109 17.8359C46.1641 17.8203 46.125 17.7969 46.0938 17.7656C45.9375 17.7188 45.8125 17.6641 45.7188 17.6016L45.4609 17.4609C45.4766 17.3047 45.4844 17.1953 45.4844 17.1328C45.3594 16.9609 45.2578 16.7734 45.1797 16.5703C45.1172 16.3672 45.0625 16.1562 45.0156 15.9375C44.9688 15.7656 44.9219 15.6094 44.875 15.4688C44.8438 15.3281 44.7891 15.2031 44.7109 15.0938C44.6797 14 44.7812 13.0859 45.0156 12.3516C45.25 11.6016 45.5078 10.875 45.7891 10.1719C45.9453 9.79688 46.0938 9.41406 46.2344 9.02344C46.375 8.63281 46.5 8.23438 46.6094 7.82812L46.8672 7.57031C46.9766 7.47656 47.0469 7.42188 47.0781 7.40625C47.0781 7.20312 47.1172 7.00781 47.1953 6.82031C47.2734 6.61719 47.3594 6.41406 47.4531 6.21094C47.5156 6.08594 47.5703 5.96094 47.6172 5.83594C47.6797 5.71094 47.7188 5.60156 47.7344 5.50781C47.625 5.50781 47.5234 5.51563 47.4297 5.53125C47.3516 5.53125 47.2656 5.53906 47.1719 5.55469C46.9688 5.60156 46.7734 5.625 46.5859 5.625C46.4453 5.625 46.3438 5.61719 46.2812 5.60156C46.1562 5.66406 46.0391 5.70313 45.9297 5.71875C45.8203 5.71875 45.7109 5.71875 45.6016 5.71875H45.3203H45.0391C44.8516 5.71875 44.7031 5.74219 44.5938 5.78906C44.375 5.78906 44.2344 5.78906 44.1719 5.78906C44.1094 5.78906 44.0391 5.78906 43.9609 5.78906H43.6797H43.3984C43.2734 5.78906 43.1328 5.78125 42.9766 5.76562C42.8203 5.73437 42.6562 5.67188 42.4844 5.57812L42.3203 5.39062C42.2266 5.21875 42.1406 5.125 42.0625 5.10938L41.8047 5.03906V4.78125ZM60.7891 18.0938C60.1016 18.1875 59.4766 18.1562 58.9141 18C58.3516 17.8438 57.8438 17.6016 57.3906 17.2734C56.9531 16.9453 56.5703 16.5547 56.2422 16.1016C55.9297 15.6484 55.6719 15.1641 55.4688 14.6484C55.3281 13.5859 55.3672 12.625 55.5859 11.7656C55.8047 10.8906 56.125 10.0859 56.5469 9.35156C56.9688 8.61719 57.4453 7.92969 57.9766 7.28906C58.5234 6.64844 59.0469 6.03125 59.5469 5.4375C59.6562 5.48438 59.7422 5.48438 59.8047 5.4375C59.8828 5.39062 59.9453 5.32813 59.9922 5.25C60.0547 5.17187 60.1172 5.09375 60.1797 5.01562C60.2578 4.9375 60.3438 4.88281 60.4375 4.85156C60.5 4.71094 60.5781 4.59375 60.6719 4.5C60.7812 4.40625 60.8906 4.32031 61 4.24219C61.125 4.14844 61.2344 4.05469 61.3281 3.96094C61.4375 3.86719 61.5312 3.75 61.6094 3.60938C61.7656 3.57812 61.8984 3.52344 62.0078 3.44531C62.1328 3.36719 62.2422 3.28125 62.3359 3.1875C62.4453 3.09375 62.5547 3.00781 62.6641 2.92969C62.7734 2.85156 62.9062 2.78906 63.0625 2.74219V2.4375C63.4062 2.28125 63.6562 2.10938 63.8125 1.92188C63.9688 1.73438 64.1562 1.49219 64.375 1.19531C64.5469 1.17969 64.6797 1.17188 64.7734 1.17188C64.8828 1.17188 65.0469 1.15625 65.2656 1.125C65.4062 0.859375 65.5391 0.664063 65.6641 0.539062C65.7891 0.414062 65.9688 0.273437 66.2031 0.117188C66.4375 0.242188 66.6875 0.320312 66.9531 0.351562C67.2188 0.367187 67.4609 0.484375 67.6797 0.703125C67.6953 0.890625 67.75 1.03906 67.8438 1.14844C67.9375 1.24219 68.0391 1.33594 68.1484 1.42969C68.2578 1.50781 68.3672 1.59375 68.4766 1.6875C68.5859 1.78125 68.6562 1.91406 68.6875 2.08594C68.7656 2.08594 68.8125 2.07031 68.8281 2.03906C68.8594 2.00781 68.9141 2 68.9922 2.01562C69.0234 2.14063 69.0547 2.24219 69.0859 2.32031C69.1172 2.39844 69.1484 2.46875 69.1797 2.53125C69.2266 2.59375 69.2656 2.66406 69.2969 2.74219C69.3438 2.82031 69.3828 2.91406 69.4141 3.02344C69.3359 3.21094 69.2656 3.41406 69.2031 3.63281C69.1406 3.83594 69.0156 3.97656 68.8281 4.05469C68.8281 4.17969 68.875 4.25 68.9688 4.26562C69.0625 4.26562 69.1172 4.32031 69.1328 4.42969C69.1484 4.57031 69.125 4.6875 69.0625 4.78125C69.5 5.51563 69.8984 6.28906 70.2578 7.10156C70.6172 7.89844 71.0234 8.66406 71.4766 9.39844C71.4453 9.61719 71.4531 9.83594 71.5 10.0547C71.5625 10.2578 71.6328 10.4609 71.7109 10.6641C71.8047 10.8672 71.8906 11.0703 71.9688 11.2734C72.0469 11.4766 72.1016 11.6797 72.1328 11.8828C72.1641 12.1484 72.1641 12.4375 72.1328 12.75C72.1016 13.0469 72.0391 13.3359 71.9453 13.6172C71.8516 13.8984 71.7266 14.1641 71.5703 14.4141C71.4141 14.6484 71.2344 14.8281 71.0312 14.9531C70.7812 15.2656 70.4688 15.5234 70.0938 15.7266C69.7188 15.9141 69.375 16.1406 69.0625 16.4062C68.8438 16.5312 68.6094 16.625 68.3594 16.6875C68.1094 16.7344 67.8516 16.7891 67.5859 16.8516C67.3828 16.9766 67.1406 17.1016 66.8594 17.2266C66.5781 17.3359 66.2891 17.4375 65.9922 17.5312C65.6953 17.625 65.3984 17.7031 65.1016 17.7656C64.8047 17.8125 64.5391 17.8203 64.3047 17.7891C63.7422 17.9922 63.1953 18.1328 62.6641 18.2109C62.1328 18.2891 61.5078 18.25 60.7891 18.0938ZM61.0938 9.5625C60.9375 9.92188 60.75 10.25 60.5312 10.5469C60.3281 10.8281 60.125 11.1172 59.9219 11.4141C59.7188 11.7109 59.5391 12.0312 59.3828 12.375C59.2422 12.7031 59.1641 13.0938 59.1484 13.5469C59.4609 13.8125 59.8281 13.9766 60.25 14.0391C60.6875 14.0859 61.1328 14.0938 61.5859 14.0625C62.0391 14.0156 62.4922 13.9531 62.9453 13.875C63.3984 13.7969 63.8047 13.7578 64.1641 13.7578C64.1641 13.6172 64.2266 13.5469 64.3516 13.5469C65.0078 13.4844 65.6172 13.3047 66.1797 13.0078C66.7422 12.6953 67.3281 12.3828 67.9375 12.0703C68.0156 11.8828 68.1172 11.7188 68.2422 11.5781C68.3672 11.4375 68.4375 11.2344 68.4531 10.9688C68.375 10.8281 68.3203 10.7109 68.2891 10.6172C68.2734 10.5234 68.2656 10.3828 68.2656 10.1953C67.8594 9.63281 67.5078 9.02344 67.2109 8.36719C66.9141 7.69531 66.5703 7.0625 66.1797 6.46875C66.1484 6.54688 66.0859 6.625 65.9922 6.70312C65.8984 6.78125 65.7969 6.76562 65.6875 6.65625C65.6406 6.8125 65.5703 6.92188 65.4766 6.98438C65.3828 7.03125 65.2734 7.05469 65.1484 7.05469C65.0391 7.05469 64.9219 7.03125 64.7969 6.98438C64.6875 6.9375 64.5859 6.875 64.4922 6.79688C63.9453 7.23438 63.3984 7.65625 62.8516 8.0625C62.3203 8.46875 61.8359 8.94531 61.3984 9.49219C61.3203 9.53906 61.2734 9.55469 61.2578 9.53906C61.2422 9.52344 61.1875 9.53125 61.0938 9.5625ZM73.3516 15.9609C73.3516 15.7109 73.3281 15.4922 73.2812 15.3047C73.25 15.1016 73.2109 14.9141 73.1641 14.7422C73.1328 14.5703 73.1094 14.3906 73.0938 14.2031C73.0781 14.0156 73.1016 13.7969 73.1641 13.5469C73.1172 13.4062 73.0703 13.2734 73.0234 13.1484C72.9766 13.0078 72.9297 12.8672 72.8828 12.7266C72.9141 12.0234 73.0547 11.3906 73.3047 10.8281C73.5547 10.25 73.8594 9.72656 74.2188 9.25781C74.5781 8.77344 74.9688 8.33594 75.3906 7.94531C75.8125 7.53906 76.2188 7.14844 76.6094 6.77344C76.6875 6.85156 76.7422 6.86719 76.7734 6.82031C76.8203 6.75781 76.9141 6.74219 77.0547 6.77344C77.0703 6.67969 77.1172 6.5625 77.1953 6.42188C77.2734 6.28125 77.3672 6.15625 77.4766 6.04688C77.6016 5.92187 77.7344 5.82031 77.875 5.74219C78.0156 5.66406 78.1484 5.63281 78.2734 5.64844C78.4297 5.35156 78.6641 5.09375 78.9766 4.875C79.3047 4.64062 79.6328 4.41406 79.9609 4.19531C80.2891 3.97656 80.5859 3.73438 80.8516 3.46875C81.1172 3.20312 81.2812 2.875 81.3438 2.48438H81.8125C81.625 2.20312 81.5391 1.91406 81.5547 1.61719C81.5703 1.30469 81.6641 1.05469 81.8359 0.867188C82.0234 0.664063 82.2734 0.539062 82.5859 0.492188C82.8984 0.445312 83.2578 0.523438 83.6641 0.726562C83.8359 0.757813 83.9531 0.726562 84.0156 0.632812C84.0781 0.539062 84.1797 0.476563 84.3203 0.445312C85.0391 0.757813 85.6797 1.14062 86.2422 1.59375C86.8047 2.04688 87.3125 2.5625 87.7656 3.14062C87.7344 3.1875 87.6953 3.22656 87.6484 3.25781C87.6172 3.27344 87.5859 3.29687 87.5547 3.32812C87.5234 3.34375 87.5 3.36719 87.4844 3.39844C87.4844 3.42969 87.5156 3.46875 87.5781 3.51562C88.1094 4.1875 88.5859 4.90625 89.0078 5.67188C89.4297 6.42188 89.8203 7.21875 90.1797 8.0625C90.2578 8.70312 90.2812 9.34375 90.25 9.98438C90.2188 10.6094 90.1328 11.2734 89.9922 11.9766C89.8672 12.2422 89.7188 12.4922 89.5469 12.7266C89.3906 12.9453 89.2188 13.1641 89.0312 13.3828C88.8438 13.5859 88.6562 13.7969 88.4688 14.0156C88.2812 14.2188 88.1094 14.4375 87.9531 14.6719L88.3516 15.6094C88.3359 15.7344 88.3594 15.875 88.4219 16.0312C88.4844 16.1719 88.5469 16.3203 88.6094 16.4766C88.6719 16.6172 88.7188 16.7578 88.75 16.8984C88.7969 17.0391 88.7969 17.1562 88.75 17.25C88.7969 17.3438 88.8984 17.375 89.0547 17.3438C88.9922 17.375 88.9453 17.4375 88.9141 17.5312C88.8984 17.625 88.9766 17.6562 89.1484 17.625C89.1172 17.7969 89.0469 17.9922 88.9375 18.2109C88.8281 18.4297 88.6875 18.6328 88.5156 18.8203C88.3438 19.0234 88.1328 19.1875 87.8828 19.3125C87.6484 19.4531 87.3828 19.5234 87.0859 19.5234C86.7734 19.3672 86.5234 19.2109 86.3359 19.0547C86.1641 18.8984 85.9531 18.7109 85.7031 18.4922L84.8359 16.4531C83.6953 16.9688 82.4766 17.3906 81.1797 17.7188C79.8828 18.0312 78.5078 18.2266 77.0547 18.3047C76.2734 18.0859 75.5625 17.7891 74.9219 17.4141C74.2812 17.0391 73.7578 16.5547 73.3516 15.9609ZM79.375 9.77344C78.6875 10.3359 78.0625 10.9922 77.5 11.7422C76.9531 12.4922 76.5078 13.3125 76.1641 14.2031C76.3047 14.2812 76.4766 14.3281 76.6797 14.3438C76.8828 14.3594 77.0703 14.3906 77.2422 14.4375C78.1328 14.1875 79.0469 13.9531 79.9844 13.7344C80.9375 13.5 81.8516 13.2109 82.7266 12.8672C82.3672 12.4297 82.0234 12.0078 81.6953 11.6016C81.3828 11.1953 81.1328 10.7891 80.9453 10.3828C80.9922 10.2891 81.0312 10.1797 81.0625 10.0547C81.1094 9.92969 81.1641 9.80469 81.2266 9.67969C81.2891 9.55469 81.375 9.44531 81.4844 9.35156C81.5938 9.25781 81.7422 9.21094 81.9297 9.21094C82.2109 9.32031 82.5391 9.38281 82.9141 9.39844C83.3047 9.41406 83.6562 9.45312 83.9688 9.51562C84.2812 9.73438 84.5547 10.0078 84.7891 10.3359C85.0234 10.6484 85.2578 10.9609 85.4922 11.2734C85.8359 10.9609 86.1328 10.6172 86.3828 10.2422C86.6328 9.85156 86.8203 9.41406 86.9453 8.92969C86.8516 8.67969 86.7344 8.39844 86.5938 8.08594C86.4531 7.77344 86.2891 7.46875 86.1016 7.17188C85.9297 6.875 85.7266 6.60938 85.4922 6.375C85.2734 6.14062 85.0312 5.98438 84.7656 5.90625C84.6406 5.875 84.5547 5.89844 84.5078 5.97656C84.4766 6.03906 84.3828 6.04688 84.2266 6C83.3828 6.60938 82.5391 7.21094 81.6953 7.80469C80.8516 8.38281 80.0781 9.03906 79.375 9.77344ZM92.3125 6.39844C92.2812 6.19531 92.2422 6.07031 92.1953 6.02344C92.3047 5.74219 92.3828 5.46875 92.4297 5.20312C92.4922 4.92188 92.5391 4.65625 92.5703 4.40625C92.6016 4.1875 92.6328 3.98438 92.6641 3.79688C92.7109 3.60938 92.7656 3.42969 92.8281 3.25781C93.0938 3.19531 93.2891 3.08594 93.4141 2.92969C93.5547 2.75781 93.6641 2.60938 93.7422 2.48438C94.0234 2.46875 94.2031 2.50781 94.2812 2.60156C94.375 2.69531 94.4766 2.85156 94.5859 3.07031C94.6641 3.24219 94.7734 3.42969 94.9141 3.63281C95.0547 3.82031 95.2656 3.96875 95.5469 4.07812C95.5938 4.25 95.6484 4.41406 95.7109 4.57031C95.7734 4.72656 95.8438 4.89062 95.9219 5.0625C96.0625 5.39062 96.1953 5.73437 96.3203 6.09375C96.4453 6.4375 96.5156 6.76562 96.5312 7.07812C96.3438 7.4375 96.1953 7.85156 96.0859 8.32031C95.9922 8.78906 95.9297 9.26562 95.8984 9.75C95.8828 10.2188 95.8984 10.6719 95.9453 11.1094C95.9922 11.5469 96.0703 11.9141 96.1797 12.2109L96.3203 12.5859L96.8359 12.5391C97.3984 12.3984 97.9062 12.2422 98.3594 12.0703C98.8125 11.8828 99.2344 11.6641 99.625 11.4141C100.016 11.1641 100.391 10.8828 100.75 10.5703C101.109 10.2422 101.484 9.85938 101.875 9.42188C102.25 8.98438 102.586 8.49219 102.883 7.94531C103.18 7.38281 103.422 6.80469 103.609 6.21094C103.812 5.61719 103.969 5.02344 104.078 4.42969C104.188 3.83594 104.258 3.28125 104.289 2.76562C104.586 2.625 104.75 2.39844 104.781 2.08594L104.711 1.78125C104.664 1.70312 104.641 1.63281 104.641 1.57031C104.656 1.49219 104.68 1.42187 104.711 1.35938C104.836 1 105.102 0.734375 105.508 0.5625C105.789 0.75 106.047 0.953125 106.281 1.17188C106.531 1.39063 106.758 1.60937 106.961 1.82812C106.992 2.25 107.055 2.61719 107.148 2.92969C107.242 3.22656 107.344 3.51562 107.453 3.79688C107.562 4.0625 107.656 4.32031 107.734 4.57031C107.828 4.82031 107.891 5.125 107.922 5.48438C107.766 5.95312 107.648 6.39844 107.57 6.82031C107.508 7.22656 107.445 7.65625 107.383 8.10938L107.336 8.36719C107.055 8.85156 106.773 9.35156 106.492 9.86719C106.227 10.3672 106.008 10.8047 105.836 11.1797C105.742 11.2734 105.656 11.3828 105.578 11.5078C105.516 11.6328 105.453 11.7578 105.391 11.8828C105.359 11.9297 105.312 12.0078 105.25 12.1172C105.203 12.2266 105.156 12.3047 105.109 12.3516L104.547 12.1406L104.406 12.8672L104.031 12.9609L103.75 13.2891C103.391 13.9141 103.008 14.4375 102.602 14.8594C102.211 15.2812 101.766 15.6562 101.266 15.9844C100.781 16.3125 100.227 16.625 99.6016 16.9219C98.9922 17.2031 98.2891 17.5078 97.4922 17.8359C97.1797 17.7891 96.9062 17.7656 96.6719 17.7656C96.4531 17.75 96.2344 17.7344 96.0156 17.7188C95.7969 17.7188 95.5859 17.7109 95.3828 17.6953C95.1797 17.6797 94.9453 17.6562 94.6797 17.625C94.6172 17.4844 94.5312 17.3828 94.4219 17.3203C94.3125 17.2578 94.2109 17.2266 94.1172 17.2266C93.8047 17.0703 93.5703 16.8516 93.4141 16.5703C93.2578 16.2891 93.0938 15.9766 92.9219 15.6328C92.8438 15.4453 92.7578 15.2578 92.6641 15.0703C92.5859 14.8828 92.4844 14.7031 92.3594 14.5312L92.8281 14.3906L92.2188 13.6875C92.1719 13.6406 92.1172 13.5938 92.0547 13.5469C92.0078 13.5 91.9609 13.4453 91.9141 13.3828V12.9375C91.8516 11.6562 91.8203 10.4766 91.8203 9.39844C91.8359 8.30469 91.9844 7.34375 92.2656 6.51562L92.3125 6.39844ZM108.625 17.2031C108.5 17.0781 108.406 16.9297 108.344 16.7578C108.297 16.5859 108.172 16.4453 107.969 16.3359C107.938 16.1016 107.891 15.8359 107.828 15.5391C107.781 15.2266 107.727 14.9141 107.664 14.6016C107.617 14.2734 107.578 13.9531 107.547 13.6406C107.531 13.3125 107.547 13.0156 107.594 12.75C107.625 12.6094 107.672 12.4766 107.734 12.3516C107.812 12.2266 107.883 12.1094 107.945 12C108.023 11.875 108.078 11.75 108.109 11.625C108.156 11.5 108.164 11.375 108.133 11.25C108.227 11.2344 108.281 11.1875 108.297 11.1094C108.328 11.0156 108.406 10.9844 108.531 11.0156C108.641 10.6719 108.758 10.3516 108.883 10.0547C109.008 9.75781 109.141 9.46875 109.281 9.1875C109.422 8.90625 109.562 8.625 109.703 8.34375C109.859 8.04688 110 7.71875 110.125 7.35938C109.859 7.10938 109.664 6.84375 109.539 6.5625C109.43 6.26562 109.344 5.96875 109.281 5.67188C109.219 5.375 109.172 5.07812 109.141 4.78125C109.109 4.46875 109.047 4.15625 108.953 3.84375C109.141 3.5625 109.367 3.33594 109.633 3.16406C109.898 2.97656 110.188 2.82812 110.5 2.71875C110.828 2.59375 111.18 2.5 111.555 2.4375C111.93 2.35937 112.328 2.27344 112.75 2.17969C113.5 1.94531 114.172 1.76563 114.766 1.64062C115.359 1.5 115.938 1.39063 116.5 1.3125C117.062 1.21875 117.648 1.14062 118.258 1.07812C118.867 1 119.57 0.890625 120.367 0.75C120.383 0.796875 120.406 0.820312 120.438 0.820312C120.484 0.820312 120.539 0.820312 120.602 0.820312C120.648 0.929687 120.734 0.984375 120.859 0.984375C120.859 0.9375 120.852 0.898438 120.836 0.867188C120.836 0.820312 120.836 0.78125 120.836 0.75C120.867 0.75 120.906 0.757813 120.953 0.773438C121.016 0.789062 121.062 0.804688 121.094 0.820312C121.141 0.835937 121.18 0.835937 121.211 0.820312C121.242 0.789062 121.25 0.734375 121.234 0.65625C121.422 0.984375 121.664 1.25781 121.961 1.47656C122.258 1.67969 122.586 1.85938 122.945 2.01562C122.961 2.15625 122.961 2.25781 122.945 2.32031C122.945 2.38281 122.938 2.44531 122.922 2.50781C122.906 2.55469 122.898 2.61719 122.898 2.69531C122.898 2.75781 122.914 2.85156 122.945 2.97656C122.695 3.39844 122.406 3.72656 122.078 3.96094C121.766 4.19531 121.43 4.375 121.07 4.5C120.711 4.625 120.328 4.71875 119.922 4.78125C119.531 4.84375 119.125 4.91406 118.703 4.99219C118.297 5.05469 117.883 5.14844 117.461 5.27344C117.039 5.39844 116.625 5.58594 116.219 5.83594C116.094 5.78906 115.977 5.77344 115.867 5.78906C115.773 5.78906 115.672 5.80469 115.562 5.83594C115.453 5.86719 115.328 5.89844 115.188 5.92969C115.062 5.96094 114.906 5.96094 114.719 5.92969C114.594 6.03906 114.445 6.11719 114.273 6.16406C114.117 6.21094 113.953 6.25781 113.781 6.30469C113.859 6.47656 113.891 6.64844 113.875 6.82031C113.875 6.99219 113.898 7.14062 113.945 7.26562C114.602 7.32812 115.328 7.32812 116.125 7.26562C116.922 7.1875 117.703 7.13281 118.469 7.10156C118.484 7.17969 118.477 7.23438 118.445 7.26562C118.414 7.29688 118.398 7.35156 118.398 7.42969C118.539 7.52344 118.672 7.64062 118.797 7.78125C118.922 7.92188 119.047 8.0625 119.172 8.20312C119.312 8.32812 119.453 8.4375 119.594 8.53125C119.734 8.60938 119.898 8.64062 120.086 8.625C120.164 8.78125 120.219 8.94531 120.25 9.11719C120.281 9.28906 120.258 9.46875 120.18 9.65625C119.867 9.85938 119.562 10.0703 119.266 10.2891C118.969 10.4922 118.656 10.6797 118.328 10.8516C118.016 11.0234 117.672 11.1641 117.297 11.2734C116.922 11.3828 116.516 11.4297 116.078 11.4141C116 11.4141 115.93 11.4141 115.867 11.4141C115.82 11.4141 115.758 11.3828 115.68 11.3203C115.523 11.3984 115.312 11.4297 115.047 11.4141C114.797 11.3828 114.586 11.4062 114.414 11.4844C114.195 11.4062 113.938 11.3672 113.641 11.3672C113.359 11.3672 113.109 11.3281 112.891 11.25C112.609 11.6562 112.344 12.0859 112.094 12.5391C111.844 12.9766 111.625 13.4453 111.438 13.9453C112.078 14.0391 112.609 14.0781 113.031 14.0625C113.453 14.0469 113.852 14.0156 114.227 13.9688C114.602 13.9219 114.984 13.875 115.375 13.8281C115.781 13.7812 116.273 13.7656 116.852 13.7812C117.242 13.5938 117.688 13.4688 118.188 13.4062C118.703 13.3281 119.18 13.2188 119.617 13.0781C119.773 13.125 119.906 13.2188 120.016 13.3594C120.125 13.4844 120.227 13.6172 120.32 13.7578C120.43 13.8828 120.539 13.9922 120.648 14.0859C120.758 14.1797 120.898 14.2109 121.07 14.1797C121.148 14.2578 121.195 14.3516 121.211 14.4609C121.242 14.5703 121.266 14.6719 121.281 14.7656C121.312 14.8594 121.352 14.9375 121.398 15C121.445 15.0469 121.531 15.0625 121.656 15.0469C121.359 15.6562 121.023 16.125 120.648 16.4531C120.289 16.7812 119.875 17.0391 119.406 17.2266C118.953 17.3984 118.438 17.5312 117.859 17.625C117.297 17.7031 116.664 17.8047 115.961 17.9297C115.789 17.9609 115.641 17.9609 115.516 17.9297C115.406 17.8828 115.289 17.8594 115.164 17.8594C114.727 17.9375 114.203 18.0156 113.594 18.0938C113 18.1719 112.398 18.2031 111.789 18.1875C111.18 18.1719 110.594 18.0938 110.031 17.9531C109.469 17.8125 109 17.5625 108.625 17.2031Z" fill="#589D38"/>
<path d="M36.2266 31.2109C35.5755 31.2109 34.8724 31.263 34.1172 31.3672C33.362 31.4453 32.6198 31.5365 31.8906 31.6406C31.3698 31.7188 30.862 31.7839 30.3672 31.8359C29.8984 31.888 29.4688 31.9271 29.0781 31.9531C28.8958 32.526 28.7135 33.0339 28.5312 33.4766C28.349 33.9193 28.1536 34.349 27.9453 34.7656C27.737 35.2083 27.5417 35.6641 27.3594 36.1328C27.2031 36.5755 27.0469 37.0573 26.8906 37.5781C26.6302 37.9948 26.4089 38.3854 26.2266 38.75C26.0703 39.0885 25.9401 39.4792 25.8359 39.9219C25.5234 40.3125 25.2891 40.7292 25.1328 41.1719C24.9766 41.5885 24.8594 41.9531 24.7812 42.2656L24.625 42.7344C24.4688 42.8906 24.3776 43.0208 24.3516 43.125C24.3255 43.2031 24.2604 43.2812 24.1562 43.3594C24.1302 43.6458 24.0391 43.9323 23.8828 44.2188C23.8307 44.349 23.7917 44.4792 23.7656 44.6094C23.7396 44.7135 23.7266 44.7917 23.7266 44.8438C23.7266 45.1042 23.6615 45.2734 23.5312 45.3516C23.5573 45.4818 23.5573 45.625 23.5312 45.7812C23.5052 45.9115 23.4792 46.0417 23.4531 46.1719C23.375 46.4844 23.349 46.7318 23.375 46.9141C23.4531 47.0182 23.5182 47.1094 23.5703 47.1875C23.6484 47.2656 23.7005 47.3698 23.7266 47.5C23.8828 47.6042 24 47.6693 24.0781 47.6953C24.1823 47.7734 24.3385 47.8646 24.5469 47.9688L24.8984 48.3594C25.0286 49.1146 24.9115 49.7135 24.5469 50.1562C24.1562 50.651 23.4922 50.8984 22.5547 50.8984H22.0859C21.9557 50.7682 21.8776 50.6641 21.8516 50.5859C21.6432 50.5078 21.474 50.4427 21.3438 50.3906C21.2135 50.3385 21.0964 50.2344 20.9922 50.0781C20.6536 49.9219 20.3802 49.7917 20.1719 49.6875L19.8203 49.4922C19.8203 49.2057 19.8203 49.0495 19.8203 49.0234C19.638 48.7891 19.4948 48.5286 19.3906 48.2422C19.3125 47.9557 19.2474 47.6693 19.1953 47.3828C19.1432 47.1484 19.0781 46.9271 19 46.7188C18.9479 46.5104 18.8698 46.3281 18.7656 46.1719C18.7135 44.6615 18.8568 43.3854 19.1953 42.3438C19.5339 41.3021 19.8854 40.2995 20.25 39.3359C20.4583 38.8151 20.6667 38.2943 20.875 37.7734C21.0833 37.2266 21.2656 36.6667 21.4219 36.0938L21.7734 35.7031C21.9557 35.2865 22.099 34.9479 22.2031 34.6875C22.3333 34.401 22.4635 34.1146 22.5938 33.8281C22.6719 33.6458 22.737 33.4766 22.7891 33.3203C22.8672 33.138 22.9323 32.9818 22.9844 32.8516C22.8281 32.8516 22.6849 32.8646 22.5547 32.8906C22.4245 32.8906 22.2943 32.9036 22.1641 32.9297C22.0078 32.9557 21.8646 32.9818 21.7344 33.0078C21.6042 33.0078 21.474 33.0078 21.3438 33.0078C21.1615 33.0078 21.0312 32.9948 20.9531 32.9688C20.6667 33.099 20.3542 33.1641 20.0156 33.1641H19.625C19.5469 33.1641 19.4688 33.1641 19.3906 33.1641C19.3385 33.138 19.2865 33.125 19.2344 33.125C18.974 33.125 18.7656 33.1641 18.6094 33.2422C18.2969 33.2422 17.9974 33.2422 17.7109 33.2422H17.3203C17.2682 33.2422 17.2031 33.2552 17.125 33.2812C17.0469 33.2812 16.9818 33.2812 16.9297 33.2812C16.7474 33.2812 16.5521 33.2682 16.3438 33.2422C16.1354 33.1901 15.9141 33.099 15.6797 32.9688C15.3672 32.5521 15.1589 32.3307 15.0547 32.3047L14.7031 31.8359C14.6771 31.6797 14.638 31.5365 14.5859 31.4062C14.5339 31.25 14.4818 31.0807 14.4297 30.8984C14.3255 30.638 14.2214 30.3646 14.1172 30.0781C14.0391 29.7656 14 29.401 14 28.9844C14.026 28.776 14.0781 28.6198 14.1562 28.5156C14.2344 28.4115 14.2995 28.3203 14.3516 28.2422L14.4688 27.6562L14.9766 27.6953H16.0703C16.9036 27.6953 17.75 27.6693 18.6094 27.6172C19.4688 27.5391 20.3542 27.4609 21.2656 27.3828C21.7865 27.3307 22.3073 27.2786 22.8281 27.2266C23.375 27.1745 23.9349 27.1224 24.5078 27.0703C24.612 26.8359 24.7161 26.6146 24.8203 26.4062L25.2109 26.2109C25.6797 26.1849 26.0052 26.25 26.1875 26.4062C26.3958 26.5365 26.5651 26.6667 26.6953 26.7969C27.2682 26.7448 27.8411 26.6927 28.4141 26.6406C29.013 26.5625 29.612 26.4714 30.2109 26.3672C31.0964 26.237 31.9818 26.1198 32.8672 26.0156C33.7786 25.9115 34.651 25.8594 35.4844 25.8594C35.849 25.8594 36.2005 25.8724 36.5391 25.8984C36.8776 25.9245 37.1901 25.9635 37.4766 26.0156L37.8672 26.2891C37.9453 26.4453 38.0495 26.5885 38.1797 26.7188C38.3359 26.849 38.4922 26.9792 38.6484 27.1094C38.9609 27.3958 39.2734 27.7344 39.5859 28.125C39.8984 28.5156 40.0156 29.0885 39.9375 29.8438C39.7292 30.1562 39.5729 30.3385 39.4688 30.3906L39.1172 30.8594L38.7266 30.8203C38.5703 30.8203 38.4271 30.8464 38.2969 30.8984C38.1667 30.9245 38.0365 30.9635 37.9062 31.0156C37.8021 31.0677 37.6979 31.1198 37.5938 31.1719C37.4896 31.1979 37.3724 31.224 37.2422 31.25C37.0078 31.25 36.8125 31.25 36.6562 31.25C36.526 31.224 36.3828 31.2109 36.2266 31.2109ZM54.9766 28.0078C55.0026 28.1901 55.0026 28.3333 54.9766 28.4375C54.9766 28.5156 54.9635 28.5938 54.9375 28.6719C54.9375 28.75 54.9375 28.8411 54.9375 28.9453C54.9375 29.0234 54.9635 29.1536 55.0156 29.3359C54.4688 30.2214 53.8307 30.8333 53.1016 31.1719C52.3984 31.4844 51.6302 31.7188 50.7969 31.875C49.9635 32.0052 49.1042 32.1484 48.2188 32.3047C47.3594 32.4609 46.5 32.7995 45.6406 33.3203C45.3021 33.1901 44.9896 33.1901 44.7031 33.3203C44.4427 33.4505 44.0521 33.4896 43.5312 33.4375C43.375 33.5938 43.1797 33.7109 42.9453 33.7891C42.7109 33.8411 42.4766 33.9062 42.2422 33.9844C42.3464 34.2188 42.3854 34.4661 42.3594 34.7266C42.3594 34.9609 42.3984 35.1562 42.4766 35.3125C43.388 35.3906 44.3906 35.3776 45.4844 35.2734C46.6042 35.1693 47.6979 35.1042 48.7656 35.0781C48.7917 35.2083 48.7786 35.2995 48.7266 35.3516C48.6745 35.3776 48.6615 35.4427 48.6875 35.5469C48.8698 35.6771 49.0521 35.8464 49.2344 36.0547C49.4167 36.237 49.599 36.4193 49.7812 36.6016C49.9635 36.7839 50.1458 36.9401 50.3281 37.0703C50.5365 37.1745 50.7708 37.2135 51.0312 37.1875C51.1354 37.3958 51.2005 37.6302 51.2266 37.8906C51.2786 38.125 51.2526 38.3724 51.1484 38.6328C50.7318 38.9193 50.3151 39.2188 49.8984 39.5312C49.4818 39.8177 49.0391 40.0781 48.5703 40.3125C48.1276 40.5469 47.6458 40.7422 47.125 40.8984C46.6302 41.0286 46.0703 41.0807 45.4453 41.0547C45.3151 41.0547 45.2109 41.0547 45.1328 41.0547C45.0807 41.0547 45.0026 41.0156 44.8984 40.9375C44.6901 41.0677 44.3906 41.1068 44 41.0547C43.6354 41.0026 43.349 41.0417 43.1406 41.1719C42.8542 41.0417 42.5026 40.9896 42.0859 41.0156C41.6953 41.0156 41.3438 40.9635 41.0312 40.8594C40.6146 41.4062 40.237 41.9922 39.8984 42.6172C39.5599 43.2422 39.2604 43.9062 39 44.6094C39.8854 44.7396 40.6146 44.7917 41.1875 44.7656C41.7865 44.7396 42.3464 44.7005 42.8672 44.6484C43.388 44.5703 43.9219 44.5052 44.4688 44.4531C45.0156 44.375 45.7057 44.349 46.5391 44.375C47.0599 44.0885 47.6719 43.9062 48.375 43.8281C49.1042 43.724 49.7682 43.5677 50.3672 43.3594C50.5755 43.4375 50.7578 43.5807 50.9141 43.7891C51.0703 43.9714 51.2135 44.1536 51.3438 44.3359C51.5 44.4922 51.6562 44.6354 51.8125 44.7656C51.9688 44.8958 52.1641 44.9479 52.3984 44.9219C52.5026 45.026 52.5677 45.1562 52.5938 45.3125C52.6458 45.4427 52.6849 45.5729 52.7109 45.7031C52.737 45.8333 52.776 45.9505 52.8281 46.0547C52.9062 46.1328 53.0234 46.1589 53.1797 46.1328C52.7891 46.9922 52.3333 47.6562 51.8125 48.125C51.3177 48.5677 50.7448 48.9062 50.0938 49.1406C49.4427 49.375 48.7135 49.5573 47.9062 49.6875C47.125 49.8177 46.2526 49.974 45.2891 50.1562C45.0547 50.2083 44.8594 50.1953 44.7031 50.1172C44.5469 50.0651 44.3646 50.0391 44.1562 50.0391C43.5573 50.1693 42.8411 50.2865 42.0078 50.3906C41.1745 50.4948 40.3281 50.5339 39.4688 50.5078C38.6094 50.4818 37.7891 50.3646 37.0078 50.1562C36.2266 49.974 35.5885 49.6354 35.0938 49.1406C34.8854 48.9583 34.7422 48.75 34.6641 48.5156C34.612 48.2552 34.4427 48.0599 34.1562 47.9297C34.1302 47.5911 34.0781 47.2135 34 46.7969C33.9219 46.3802 33.8438 45.9505 33.7656 45.5078C33.6875 45.0391 33.6224 44.5833 33.5703 44.1406C33.5443 43.6979 33.5703 43.2943 33.6484 42.9297C33.7266 42.5391 33.8828 42.1875 34.1172 41.875C34.3776 41.5625 34.4688 41.224 34.3906 40.8594C34.5208 40.8333 34.599 40.7682 34.625 40.6641C34.651 40.5339 34.7552 40.4818 34.9375 40.5078C35.0938 40.0391 35.263 39.5964 35.4453 39.1797C35.6276 38.763 35.8099 38.3594 35.9922 37.9688C36.2005 37.5781 36.3958 37.1875 36.5781 36.7969C36.7865 36.3802 36.9818 35.9245 37.1641 35.4297C36.7995 35.0911 36.526 34.7266 36.3438 34.3359C36.1875 33.9193 36.0703 33.5156 35.9922 33.125C35.9141 32.7083 35.849 32.2917 35.7969 31.875C35.7448 31.4323 35.6536 30.9896 35.5234 30.5469C35.7839 30.1562 36.0964 29.8438 36.4609 29.6094C36.8516 29.349 37.2682 29.1406 37.7109 28.9844C38.1536 28.8281 38.6354 28.6979 39.1562 28.5938C39.6771 28.4896 40.224 28.3724 40.7969 28.2422C41.8385 27.9036 42.763 27.6432 43.5703 27.4609C44.4036 27.2786 45.2109 27.1354 45.9922 27.0312C46.7995 26.901 47.6328 26.7839 48.4922 26.6797C49.3516 26.5755 50.3281 26.4193 51.4219 26.2109C51.6562 26.4453 51.8776 26.5625 52.0859 26.5625C52.1901 26.3281 52.3073 26.263 52.4375 26.3672C52.5938 26.4453 52.6589 26.3672 52.6328 26.1328C52.8932 26.5755 53.2188 26.9531 53.6094 27.2656C54.026 27.5521 54.4818 27.7995 54.9766 28.0078ZM59.9375 45.9375C59.651 46.9792 59.3906 47.7734 59.1562 48.3203C58.9479 48.8411 58.6224 49.388 58.1797 49.9609C57.8411 49.9089 57.6068 49.9479 57.4766 50.0781C57.3464 50.2083 57.2031 50.3255 57.0469 50.4297C56.8125 50.4818 56.6432 50.4818 56.5391 50.4297C56.4349 50.3776 56.3438 50.3125 56.2656 50.2344C56.1875 50.1823 56.0833 50.1172 55.9531 50.0391C55.849 49.987 55.6797 49.9609 55.4453 49.9609C55.3932 49.7526 55.3281 49.5573 55.25 49.375C55.1979 49.1927 55.0286 49.1276 54.7422 49.1797C54.7943 48.9714 54.8073 48.8021 54.7812 48.6719C54.7552 48.5156 54.7161 48.3854 54.6641 48.2812C54.638 48.151 54.612 48.0339 54.5859 47.9297C54.5599 47.7995 54.5729 47.6432 54.625 47.4609C54.4948 47.4609 54.3906 47.3698 54.3125 47.1875C54.2344 47.0052 54.1432 46.8229 54.0391 46.6406C54.1172 46.1719 54.1953 45.7292 54.2734 45.3125C54.3516 44.8958 54.4427 44.5052 54.5469 44.1406C54.6771 43.776 54.7812 43.4115 54.8594 43.0469C54.9375 42.6823 54.8984 42.3047 54.7422 41.9141C54.8464 41.9922 54.9245 41.9792 54.9766 41.875C55.0286 41.7448 55.0677 41.5885 55.0938 41.4062C55.1198 41.1979 55.1328 41.0026 55.1328 40.8203C55.1328 40.612 55.1198 40.4427 55.0938 40.3125C55.3542 39.6354 55.5625 38.9453 55.7188 38.2422C55.901 37.513 56.0573 36.7969 56.1875 36.0938C56.3438 35.3906 56.5 34.7005 56.6562 34.0234C56.8125 33.3464 57.0208 32.7214 57.2812 32.1484C57.5677 32.0964 57.8802 32.1354 58.2188 32.2656C58.5833 32.3698 58.8047 32.513 58.8828 32.6953C59.5599 32.1745 60.1589 31.5495 60.6797 30.8203C61.2005 30.0651 61.7344 29.3359 62.2812 28.6328C62.8281 27.9297 63.4271 27.3047 64.0781 26.7578C64.7552 26.2109 65.6016 25.8854 66.6172 25.7812C67.138 26.1719 67.7109 26.5755 68.3359 26.9922C68.987 27.3828 69.5208 27.9036 69.9375 28.5547C70.1458 28.6589 70.3151 28.776 70.4453 28.9062C70.6016 29.0104 70.7839 29.1276 70.9922 29.2578V29.7266C71.3047 30.013 71.5521 30.3516 71.7344 30.7422C71.9427 31.1068 72.125 31.5104 72.2812 31.9531C72.4375 32.3698 72.5938 32.7995 72.75 33.2422C72.9062 33.6589 73.0885 34.0625 73.2969 34.4531C73.2448 34.5833 73.2188 34.7005 73.2188 34.8047C73.2188 34.8828 73.2318 34.974 73.2578 35.0781C73.3099 35.1823 73.349 35.2865 73.375 35.3906C73.401 35.4948 73.401 35.638 73.375 35.8203C73.2969 36.9661 72.9193 37.8906 72.2422 38.5938C71.5911 39.2969 70.7969 39.8828 69.8594 40.3516C68.9219 40.7943 67.9193 41.1719 66.8516 41.4844C65.7839 41.7969 64.8203 42.1354 63.9609 42.5C63.9609 42.6042 64 42.6562 64.0781 42.6562C64.1823 42.6562 64.2214 42.7214 64.1953 42.8516C64.8203 43.2422 65.3151 43.5547 65.6797 43.7891C66.0443 44.0234 66.3828 44.2188 66.6953 44.375C67.0339 44.5312 67.3854 44.6745 67.75 44.8047C68.1406 44.9089 68.6745 45.0391 69.3516 45.1953C70.0286 45.3516 70.5495 45.4818 70.9141 45.5859C71.3047 45.6641 71.6562 45.7422 71.9688 45.8203C72.2812 45.8724 72.5938 45.9245 72.9062 45.9766C73.2448 46.0026 73.7135 46.0417 74.3125 46.0938C74.5469 46.3281 74.7422 46.6146 74.8984 46.9531C75.0807 47.2656 75.1979 47.5911 75.25 47.9297C75.3021 48.2422 75.3151 48.5547 75.2891 48.8672C75.263 49.1536 75.1719 49.388 75.0156 49.5703C75.0417 49.6484 75.0938 49.6875 75.1719 49.6875C75.276 49.6615 75.3802 49.6615 75.4844 49.6875C75.3281 49.7917 75.1979 49.9219 75.0938 50.0781C74.9896 50.2344 74.8854 50.3906 74.7812 50.5469C74.6771 50.7031 74.5599 50.8333 74.4297 50.9375C74.2995 51.0677 74.1172 51.1458 73.8828 51.1719C73.0755 51.4844 72.0599 51.4974 70.8359 51.2109C69.612 50.9505 68.0625 50.4557 66.1875 49.7266C65.25 49.362 64.4818 49.0495 63.8828 48.7891C63.3099 48.5026 62.8021 48.2292 62.3594 47.9688C61.9427 47.6823 61.5521 47.3828 61.1875 47.0703C60.849 46.7578 60.4323 46.3802 59.9375 45.9375ZM65.5234 32.5391C65.237 32.9557 64.9115 33.3333 64.5469 33.6719C64.2083 34.0104 63.8698 34.362 63.5312 34.7266C63.2188 35.0651 62.9323 35.4557 62.6719 35.8984C62.4115 36.3151 62.2292 36.8099 62.125 37.3828C63.0365 37.2786 63.987 37.0312 64.9766 36.6406C65.9661 36.224 66.9036 35.8333 67.7891 35.4688C67.6849 34.6615 67.3984 34.0104 66.9297 33.5156C66.487 33.0208 66.0182 32.6953 65.5234 32.5391ZM97.0859 28.0078C97.112 28.1901 97.112 28.3333 97.0859 28.4375C97.0859 28.5156 97.0729 28.5938 97.0469 28.6719C97.0469 28.75 97.0469 28.8411 97.0469 28.9453C97.0469 29.0234 97.0729 29.1536 97.125 29.3359C96.5781 30.2214 95.9401 30.8333 95.2109 31.1719C94.5078 31.4844 93.7396 31.7188 92.9062 31.875C92.0729 32.0052 91.2135 32.1484 90.3281 32.3047C89.4688 32.4609 88.6094 32.7995 87.75 33.3203C87.4115 33.1901 87.099 33.1901 86.8125 33.3203C86.5521 33.4505 86.1615 33.4896 85.6406 33.4375C85.4844 33.5938 85.2891 33.7109 85.0547 33.7891C84.8203 33.8411 84.5859 33.9062 84.3516 33.9844C84.4557 34.2188 84.4948 34.4661 84.4688 34.7266C84.4688 34.9609 84.5078 35.1562 84.5859 35.3125C85.4974 35.3906 86.5 35.3776 87.5938 35.2734C88.7135 35.1693 89.8073 35.1042 90.875 35.0781C90.901 35.2083 90.888 35.2995 90.8359 35.3516C90.7839 35.3776 90.7708 35.4427 90.7969 35.5469C90.9792 35.6771 91.1615 35.8464 91.3438 36.0547C91.526 36.237 91.7083 36.4193 91.8906 36.6016C92.0729 36.7839 92.2552 36.9401 92.4375 37.0703C92.6458 37.1745 92.8802 37.2135 93.1406 37.1875C93.2448 37.3958 93.3099 37.6302 93.3359 37.8906C93.388 38.125 93.362 38.3724 93.2578 38.6328C92.8411 38.9193 92.4245 39.2188 92.0078 39.5312C91.5911 39.8177 91.1484 40.0781 90.6797 40.3125C90.237 40.5469 89.7552 40.7422 89.2344 40.8984C88.7396 41.0286 88.1797 41.0807 87.5547 41.0547C87.4245 41.0547 87.3203 41.0547 87.2422 41.0547C87.1901 41.0547 87.112 41.0156 87.0078 40.9375C86.7995 41.0677 86.5 41.1068 86.1094 41.0547C85.7448 41.0026 85.4583 41.0417 85.25 41.1719C84.9635 41.0417 84.612 40.9896 84.1953 41.0156C83.8047 41.0156 83.4531 40.9635 83.1406 40.8594C82.724 41.4062 82.3464 41.9922 82.0078 42.6172C81.6693 43.2422 81.3698 43.9062 81.1094 44.6094C81.9948 44.7396 82.724 44.7917 83.2969 44.7656C83.8958 44.7396 84.4557 44.7005 84.9766 44.6484C85.4974 44.5703 86.0312 44.5052 86.5781 44.4531C87.125 44.375 87.8151 44.349 88.6484 44.375C89.1693 44.0885 89.7812 43.9062 90.4844 43.8281C91.2135 43.724 91.8776 43.5677 92.4766 43.3594C92.6849 43.4375 92.8672 43.5807 93.0234 43.7891C93.1797 43.9714 93.3229 44.1536 93.4531 44.3359C93.6094 44.4922 93.7656 44.6354 93.9219 44.7656C94.0781 44.8958 94.2734 44.9479 94.5078 44.9219C94.612 45.026 94.6771 45.1562 94.7031 45.3125C94.7552 45.4427 94.7943 45.5729 94.8203 45.7031C94.8464 45.8333 94.8854 45.9505 94.9375 46.0547C95.0156 46.1328 95.1328 46.1589 95.2891 46.1328C94.8984 46.9922 94.4427 47.6562 93.9219 48.125C93.4271 48.5677 92.8542 48.9062 92.2031 49.1406C91.5521 49.375 90.8229 49.5573 90.0156 49.6875C89.2344 49.8177 88.362 49.974 87.3984 50.1562C87.1641 50.2083 86.9688 50.1953 86.8125 50.1172C86.6562 50.0651 86.474 50.0391 86.2656 50.0391C85.6667 50.1693 84.9505 50.2865 84.1172 50.3906C83.2839 50.4948 82.4375 50.5339 81.5781 50.5078C80.7188 50.4818 79.8984 50.3646 79.1172 50.1562C78.3359 49.974 77.6979 49.6354 77.2031 49.1406C76.9948 48.9583 76.8516 48.75 76.7734 48.5156C76.7214 48.2552 76.5521 48.0599 76.2656 47.9297C76.2396 47.5911 76.1875 47.2135 76.1094 46.7969C76.0312 46.3802 75.9531 45.9505 75.875 45.5078C75.7969 45.0391 75.7318 44.5833 75.6797 44.1406C75.6536 43.6979 75.6797 43.2943 75.7578 42.9297C75.8359 42.5391 75.9922 42.1875 76.2266 41.875C76.487 41.5625 76.5781 41.224 76.5 40.8594C76.6302 40.8333 76.7083 40.7682 76.7344 40.6641C76.7604 40.5339 76.8646 40.4818 77.0469 40.5078C77.2031 40.0391 77.3724 39.5964 77.5547 39.1797C77.737 38.763 77.9193 38.3594 78.1016 37.9688C78.3099 37.5781 78.5052 37.1875 78.6875 36.7969C78.8958 36.3802 79.0911 35.9245 79.2734 35.4297C78.9089 35.0911 78.6354 34.7266 78.4531 34.3359C78.2969 33.9193 78.1797 33.5156 78.1016 33.125C78.0234 32.7083 77.9583 32.2917 77.9062 31.875C77.8542 31.4323 77.763 30.9896 77.6328 30.5469C77.8932 30.1562 78.2057 29.8438 78.5703 29.6094C78.9609 29.349 79.3776 29.1406 79.8203 28.9844C80.263 28.8281 80.7448 28.6979 81.2656 28.5938C81.7865 28.4896 82.3333 28.3724 82.9062 28.2422C83.9479 27.9036 84.8724 27.6432 85.6797 27.4609C86.513 27.2786 87.3203 27.1354 88.1016 27.0312C88.9089 26.901 89.7422 26.7839 90.6016 26.6797C91.4609 26.5755 92.4375 26.4193 93.5312 26.2109C93.7656 26.4453 93.987 26.5625 94.1953 26.5625C94.2995 26.3281 94.4167 26.263 94.5469 26.3672C94.7031 26.4453 94.7682 26.3672 94.7422 26.1328C95.0026 26.5755 95.3281 26.9531 95.7188 27.2656C96.1354 27.5521 96.5911 27.7995 97.0859 28.0078ZM112.008 50.0781C111.591 50.1042 111.07 50.0911 110.445 50.0391C109.846 49.987 109.286 50.0781 108.766 50.3125C107.385 50.2604 105.979 50.0911 104.547 49.8047C103.115 49.5182 101.799 49.1667 100.602 48.75C100.341 48.4635 100.081 48.2031 99.8203 47.9688C99.5599 47.7083 99.2083 47.526 98.7656 47.4219C98.1406 46.9271 97.6328 46.3281 97.2422 45.625C96.8516 44.8958 96.5391 44.1276 96.3047 43.3203C96.0703 42.513 95.9141 41.6927 95.8359 40.8594C95.7578 40 95.7318 39.1797 95.7578 38.3984C96.1484 37.2266 96.6953 36.224 97.3984 35.3906C98.1276 34.5312 98.8698 33.6849 99.625 32.8516C99.9635 32.6953 100.211 32.5391 100.367 32.3828C100.549 32.2005 100.732 32.0443 100.914 31.9141C101.122 31.7578 101.318 31.6146 101.5 31.4844C101.708 31.3281 101.891 31.1458 102.047 30.9375C102.594 30.8073 103.062 30.625 103.453 30.3906C103.87 30.1302 104.273 29.8698 104.664 29.6094C105.055 29.3229 105.458 29.0625 105.875 28.8281C106.292 28.5938 106.773 28.4115 107.32 28.2812C107.529 28.0469 107.776 27.8646 108.062 27.7344C108.349 27.5781 108.635 27.4349 108.922 27.3047C109.234 27.1484 109.521 26.9922 109.781 26.8359C110.068 26.6797 110.289 26.4714 110.445 26.2109C110.576 26.4193 110.758 26.4974 110.992 26.4453C111.227 26.3672 111.448 26.2891 111.656 26.2109C111.786 26.1849 111.891 26.2109 111.969 26.2891C112.073 26.3672 112.164 26.4453 112.242 26.5234C112.32 26.6016 112.385 26.6536 112.438 26.6797C112.516 26.6797 112.581 26.6146 112.633 26.4844C112.763 26.4844 112.802 26.5495 112.75 26.6797C112.698 26.8099 112.659 26.901 112.633 26.9531C112.841 26.9271 113.01 26.9792 113.141 27.1094C113.297 27.2135 113.531 27.2786 113.844 27.3047C113.948 27.4349 113.974 27.5391 113.922 27.6172C113.87 27.6693 113.844 27.7734 113.844 27.9297C114.625 28.1641 115.12 28.5417 115.328 29.0625C115.536 29.5573 115.549 30.0781 115.367 30.625C115.185 31.1719 114.859 31.6797 114.391 32.1484C113.922 32.6172 113.414 32.9297 112.867 33.0859C111.617 33.4245 110.432 33.8021 109.312 34.2188C108.219 34.6094 107.32 35.1953 106.617 35.9766C105.992 36.1589 105.432 36.4062 104.938 36.7188C104.469 37.0052 104.013 37.3438 103.57 37.7344C103.154 38.099 102.75 38.4896 102.359 38.9062C101.995 39.2969 101.604 39.6875 101.188 40.0781C101.214 40.4427 101.148 40.7292 100.992 40.9375C100.862 41.1198 100.732 41.3151 100.602 41.5234C100.654 41.9141 100.745 42.2656 100.875 42.5781C101.005 42.8646 101.148 43.151 101.305 43.4375C103.023 43.9583 104.846 44.2839 106.773 44.4141C108.727 44.5443 110.68 44.6224 112.633 44.6484C112.815 44.9089 113.023 45.1562 113.258 45.3906C113.518 45.599 113.753 45.8333 113.961 46.0938C114.169 46.3281 114.339 46.6016 114.469 46.9141C114.599 47.2005 114.625 47.5651 114.547 48.0078C114.182 48.3984 113.779 48.763 113.336 49.1016C112.893 49.4141 112.451 49.7396 112.008 50.0781ZM139.078 38.2812C139.052 38.5938 139.078 38.8932 139.156 39.1797C139.234 39.4661 139.326 39.7526 139.43 40.0391C139.56 40.2995 139.677 40.5729 139.781 40.8594C139.885 41.1458 139.964 41.4323 140.016 41.7188C140.068 42.0833 140.068 42.487 140.016 42.9297C139.964 43.3464 139.872 43.763 139.742 44.1797C139.612 44.5703 139.443 44.9349 139.234 45.2734C139.026 45.5859 138.779 45.8203 138.492 45.9766C138.128 46.4453 137.685 46.8099 137.164 47.0703C136.643 47.3307 136.161 47.6432 135.719 48.0078C135.432 48.1901 135.107 48.3203 134.742 48.3984C134.404 48.4766 134.052 48.5547 133.688 48.6328C133.401 48.7891 133.062 48.9583 132.672 49.1406C132.281 49.2969 131.878 49.4531 131.461 49.6094C131.044 49.7396 130.628 49.8438 130.211 49.9219C129.794 49.974 129.43 49.987 129.117 49.9609C128.336 50.2474 127.568 50.4297 126.812 50.5078C126.083 50.612 125.224 50.5599 124.234 50.3516C123.297 50.4818 122.424 50.4427 121.617 50.2344C120.836 50.026 120.133 49.7005 119.508 49.2578C118.909 48.7891 118.375 48.2422 117.906 47.6172C117.464 46.9661 117.099 46.2891 116.812 45.5859C116.604 44.1016 116.656 42.7604 116.969 41.5625C117.281 40.3385 117.724 39.2188 118.297 38.2031C118.896 37.1615 119.573 36.2109 120.328 35.3516C121.083 34.4661 121.812 33.6068 122.516 32.7734C122.672 32.8255 122.789 32.8255 122.867 32.7734C122.971 32.6953 123.062 32.6042 123.141 32.5C123.219 32.3698 123.297 32.2526 123.375 32.1484C123.479 32.0443 123.596 31.9792 123.727 31.9531C123.909 31.5625 124.169 31.276 124.508 31.0938C124.872 30.8854 125.159 30.599 125.367 30.2344C125.602 30.1823 125.797 30.1042 125.953 30C126.109 29.8958 126.253 29.7786 126.383 29.6484C126.539 29.5182 126.695 29.401 126.852 29.2969C127.008 29.1667 127.19 29.0755 127.398 29.0234V28.5938C127.867 28.3854 128.206 28.151 128.414 27.8906C128.648 27.6042 128.922 27.2656 129.234 26.875C129.469 26.849 129.651 26.8359 129.781 26.8359C129.938 26.8359 130.159 26.8099 130.445 26.7578C130.654 26.3932 130.836 26.1198 130.992 25.9375C131.174 25.7552 131.435 25.5599 131.773 25.3516C132.086 25.5078 132.424 25.612 132.789 25.6641C133.18 25.7161 133.518 25.8854 133.805 26.1719C133.831 26.4323 133.909 26.6406 134.039 26.7969C134.169 26.9271 134.312 27.0573 134.469 27.1875C134.625 27.2917 134.768 27.4089 134.898 27.5391C135.055 27.6693 135.159 27.8516 135.211 28.0859C135.315 28.112 135.38 28.099 135.406 28.0469C135.458 27.9948 135.536 27.9818 135.641 28.0078C135.719 28.3724 135.81 28.6198 135.914 28.75C136.018 28.8542 136.122 29.0755 136.227 29.4141C136.096 29.6745 135.992 29.9479 135.914 30.2344C135.862 30.4948 135.706 30.6901 135.445 30.8203C135.419 31.0026 135.471 31.1068 135.602 31.1328C135.732 31.1328 135.81 31.1979 135.836 31.3281C135.862 31.5625 135.823 31.7318 135.719 31.8359C136.344 32.8516 136.904 33.9323 137.398 35.0781C137.893 36.1979 138.453 37.2656 139.078 38.2812ZM134.195 41.9922C134.299 41.7057 134.43 41.4714 134.586 41.2891C134.768 41.1068 134.872 40.8333 134.898 40.4688C134.768 40.2604 134.69 40.1042 134.664 40C134.638 39.8698 134.625 39.6745 134.625 39.4141C134.052 38.6068 133.557 37.7474 133.141 36.8359C132.724 35.8984 132.255 35.026 131.734 34.2188C131.682 34.3229 131.591 34.4271 131.461 34.5312C131.331 34.6354 131.188 34.6094 131.031 34.4531C130.979 34.6615 130.888 34.8177 130.758 34.9219C130.628 35 130.484 35.0391 130.328 35.0391C130.172 35.013 130.003 34.974 129.82 34.9219C129.664 34.8438 129.521 34.7526 129.391 34.6484C128.635 35.2474 127.88 35.8333 127.125 36.4062C126.37 36.9792 125.693 37.6432 125.094 38.3984C124.99 38.4505 124.924 38.4766 124.898 38.4766C124.872 38.4505 124.794 38.4635 124.664 38.5156C124.456 39.0104 124.195 39.4661 123.883 39.8828C123.596 40.2734 123.31 40.6771 123.023 41.0938C122.737 41.5104 122.49 41.9531 122.281 42.4219C122.073 42.8906 121.956 43.4375 121.93 44.0625C122.372 44.4271 122.893 44.6484 123.492 44.7266C124.091 44.8047 124.703 44.8177 125.328 44.7656C125.979 44.7135 126.604 44.6354 127.203 44.5312C127.828 44.401 128.401 44.3359 128.922 44.3359C130.016 44.0755 130.953 43.737 131.734 43.3203C132.516 42.8776 133.336 42.4349 134.195 41.9922ZM126.617 23.5547C126.591 23.2943 126.474 23.0469 126.266 22.8125C126.057 22.5781 125.875 22.4089 125.719 22.3047C125.589 21.9922 125.458 21.7057 125.328 21.4453C125.198 21.1849 125.094 20.9375 125.016 20.7031C124.938 20.4427 124.911 20.1953 124.938 19.9609C124.964 19.7266 125.055 19.4661 125.211 19.1797C125.419 19.1276 125.706 18.9583 126.07 18.6719C126.461 18.3854 126.956 17.9557 127.555 17.3828C127.841 17.1224 128.18 16.7969 128.57 16.4062C128.961 15.9896 129.391 15.5859 129.859 15.1953C130.328 14.8047 130.81 14.4531 131.305 14.1406C131.799 13.8281 132.281 13.6068 132.75 13.4766C133.01 13.4245 133.193 13.3984 133.297 13.3984C133.818 13.5807 134.326 13.8281 134.82 14.1406C135.315 14.4531 135.797 14.8047 136.266 15.1953C136.734 15.5859 137.164 15.9896 137.555 16.4062C137.945 16.7969 138.284 17.1224 138.57 17.3828C139.169 17.9557 139.651 18.3854 140.016 18.6719C140.406 18.9583 140.706 19.1276 140.914 19.1797C141.07 19.4661 141.161 19.7266 141.188 19.9609C141.214 20.1953 141.188 20.4427 141.109 20.7031C141.031 20.9375 140.927 21.1849 140.797 21.4453C140.667 21.7057 140.536 21.9922 140.406 22.3047C140.25 22.4089 140.068 22.5781 139.859 22.8125C139.651 23.0469 139.534 23.2943 139.508 23.5547C139.404 23.4766 139.247 23.5026 139.039 23.6328C138.857 23.763 138.74 23.8932 138.688 24.0234C138.453 23.8932 138.232 23.724 138.023 23.5156C137.841 23.2812 137.646 23.0599 137.438 22.8516C137.255 22.6432 137.06 22.4609 136.852 22.3047C136.669 22.1484 136.474 22.0443 136.266 21.9922C135.745 21.3932 135.198 20.7943 134.625 20.1953C134.078 19.5703 133.557 18.9844 133.062 18.4375C132.568 18.9844 132.034 19.5703 131.461 20.1953C130.914 20.7943 130.38 21.3932 129.859 21.9922C129.651 22.0443 129.443 22.1484 129.234 22.3047C129.052 22.4609 128.857 22.6432 128.648 22.8516C128.466 23.0599 128.271 23.2812 128.062 23.5156C127.88 23.724 127.672 23.8932 127.438 24.0234C127.385 23.8932 127.255 23.763 127.047 23.6328C126.865 23.5026 126.721 23.4766 126.617 23.5547Z" fill="#E54646"/>
</svg>
