<svg width="137" height="127" viewBox="0 0 137 127" fill="none" xmlns="http://www.w3.org/2000/svg">
<path d="M102.765 1.6C115.178 6.30484 123.574 17.8564 129.575 29.4822C135.604 41.1612 137.91 54.2766 136.681 67.305C135.436 80.4985 133.441 95.8167 122.572 103.72C111.712 111.618 95.7827 102.38 82.8953 106.416C70.1782 110.399 62.3957 130.023 49.509 126.602C36.5635 123.165 39.5889 102.588 30.8806 92.6061C22.7239 83.2565 5.32825 82.7658 1.15176 71.1726C-2.98579 59.6875 4.91852 47.4012 10.7127 36.6235C16.1216 26.5626 23.2138 17.2633 33.2308 11.503C42.8608 5.96527 54.3637 6.73969 65.4175 5.16541C78.0511 3.36613 90.86 -2.91205 102.765 1.6Z" fill="#E64646"/>
</svg>
