<svg width="164" height="148" viewBox="0 0 164 148" fill="none" xmlns="http://www.w3.org/2000/svg">
<path d="M96.0746 7.76827C111.382 6.8597 132.143 -7.33134 141.21 5.03473C150.38 17.5407 121.685 33.0008 125.581 48.0108C130.426 66.6745 164.566 71.234 163.39 90.4804C162.407 106.574 134.739 103.811 121.601 113.159C109.067 122.077 102.997 139.482 88.2714 143.93C73.1436 148.499 52.0629 149.471 42.1663 137.151C30.6333 122.794 47.8023 99.2403 39.2652 82.9228C32.928 70.81 10.4366 75.7298 3.78349 63.7876C-2.57516 52.374 -0.578305 35.8918 7.22611 25.4135C15.1218 14.8127 30.5133 13.9656 43.3223 10.7026C52.3721 8.39715 61.4967 9.73145 70.821 9.21279C79.3856 8.7364 87.5119 8.27653 96.0746 7.76827Z" fill="#3978D8"/>
</svg>
