<svg width="137" height="116" viewBox="0 0 137 116" fill="none" xmlns="http://www.w3.org/2000/svg">
<path d="M102.765 -9.4C115.178 -4.69516 123.574 6.85644 129.575 18.4822C135.604 30.1612 137.91 43.2766 136.68 56.305C135.436 69.4985 133.441 84.8167 122.572 92.7204C111.712 100.618 95.7827 91.38 82.8953 95.4159C70.1782 99.3985 62.3957 119.023 49.509 115.602C36.5635 112.165 39.5889 91.5878 30.8806 81.6061C22.7239 72.2565 5.32825 71.7658 1.15176 60.1726C-2.98579 48.6875 4.91852 36.4012 10.7127 25.6235C16.1216 15.5626 23.2138 6.26329 33.2308 0.503003C42.8608 -5.03473 54.3637 -4.26031 65.4175 -5.83459C78.0511 -7.63387 90.86 -13.9121 102.765 -9.4Z" fill="#E64646"/>
</svg>
