<svg width="164" height="117" viewBox="0 0 164 117" fill="none" xmlns="http://www.w3.org/2000/svg">
<path d="M96.0746 -23.2317C111.382 -24.1403 132.143 -38.3313 141.21 -25.9653C150.38 -13.4593 121.685 2.0008 125.581 17.0108C130.426 35.6745 164.566 40.234 163.39 59.4804C162.407 75.5739 134.739 72.8113 121.601 82.1589C109.067 91.077 102.997 108.482 88.2714 112.93C73.1436 117.499 52.0629 118.471 42.1663 106.151C30.6333 91.7941 47.8023 68.2403 39.2652 51.9228C32.928 39.81 10.4366 44.7298 3.78349 32.7876C-2.57516 21.374 -0.578305 4.89178 7.22611 -5.58647C15.1218 -16.1873 30.5133 -17.0344 43.3223 -20.2974C52.3721 -22.6029 61.4967 -21.2685 70.821 -21.7872C79.3856 -22.2636 87.5119 -22.7235 96.0746 -23.2317Z" fill="#3978D8"/>
</svg>
